<?xml version="1.0" standalone="no"?>
<!DOCTYPE svg PUBLIC "-//W3C//DTD SVG 20010904//EN"
 "http://www.w3.org/TR/2001/REC-SVG-20010904/DTD/svg10.dtd">
<svg version="1.0" xmlns="http://www.w3.org/2000/svg"
 width="1280.000000pt" height="1280.000000pt" viewBox="0 0 1280.000000 1280.000000"
 preserveAspectRatio="xMidYMid meet">

<g transform="translate(0.000000,1280.000000) scale(0.100000,-0.100000)"
fill="#000000" stroke="none">
<path d="M6280 6929 c-19 -5 -45 -11 -57 -13 -13 -2 -30 -9 -39 -17 -10 -8
-20 -13 -23 -11 -3 2 -7 -1 -9 -7 -2 -6 27 1 65 16 60 23 82 27 183 27 102 0
123 -3 185 -28 96 -37 141 -65 205 -129 59 -58 134 -188 145 -251 4 -20 11
-36 16 -36 29 0 -62 200 -118 260 -24 25 -43 48 -43 52 0 7 -147 103 -159 103
-3 1 -17 7 -30 14 -13 7 -35 15 -50 17 -56 10 -238 11 -271 3z"/>
<path d="M6100 6861 c-36 -20 -166 -146 -163 -159 1 -4 -5 -14 -12 -22 -21
-23 -72 -143 -80 -186 -14 -83 -17 -162 -6 -180 8 -15 11 -4 11 51 1 102 8
142 41 221 36 87 77 145 144 205 28 24 52 47 55 50 3 4 15 9 28 13 12 4 22 12
22 17 0 11 2 12 -40 -10z"/>
<path d="M6954 6388 c1 -35 -1 -71 -6 -80 -5 -11 -5 -18 1 -18 5 0 12 7 15 16
10 25 7 132 -4 139 -6 4 -8 -17 -6 -57z"/>
<path d="M5845 6272 c1 -9 8 -35 14 -57 6 -22 10 -44 10 -49 0 -5 5 -12 13
-17 7 -4 13 -16 13 -25 0 -10 6 -19 13 -21 6 -3 12 0 12 7 0 6 -5 8 -11 4 -7
-4 -10 -1 -7 7 3 8 -3 30 -13 51 -10 20 -21 55 -25 77 -4 23 -10 41 -15 41 -4
0 -6 -8 -4 -18z"/>
<path d="M6945 6268 c-2 -7 -9 -31 -16 -53 -6 -22 -25 -64 -41 -92 -17 -29
-27 -53 -24 -53 8 0 -110 -118 -145 -145 -14 -11 -32 -21 -40 -23 -8 -2 -21
-9 -29 -16 -30 -26 -97 -44 -185 -50 -49 -4 -105 -9 -123 -12 -21 -2 -31 0
-27 6 4 6 -6 10 -24 10 -38 0 -120 27 -138 46 -8 8 -19 14 -24 14 -15 0 -22 4
-47 27 -13 12 -32 25 -41 28 -9 3 -38 35 -66 70 -27 36 -54 65 -59 65 -8 0 2
-15 29 -46 6 -7 32 -37 58 -68 27 -31 54 -56 62 -56 7 0 18 -7 25 -15 7 -8 17
-12 23 -8 7 4 8 0 3 -12 -5 -15 -4 -16 9 -5 8 7 15 8 15 3 0 -13 59 -40 127
-57 62 -16 203 -19 203 -5 0 5 5 9 11 9 5 0 8 -4 5 -9 -7 -12 86 13 137 35 20
9 37 21 37 26 0 5 4 7 9 4 5 -3 20 3 34 14 14 11 29 20 34 20 13 0 122 118
115 124 -3 3 -1 6 5 6 19 0 84 140 98 209 4 22 -3 29 -10 9z"/>
</g>
</svg>
