<?xml version="1.0" standalone="no"?>
<!DOCTYPE svg PUBLIC "-//W3C//DTD SVG 20010904//EN"
 "http://www.w3.org/TR/2001/REC-SVG-20010904/DTD/svg10.dtd">
<svg version="1.0" xmlns="http://www.w3.org/2000/svg"
 width="225.000000pt" height="225.000000pt" viewBox="0 0 225.000000 225.000000"
 preserveAspectRatio="xMidYMid meet">
<metadata>
Created by potrace 1.16, written by Peter Selinger 2001-2019
</metadata>
<g transform="translate(0.000000,225.000000) scale(0.100000,-0.100000)"
fill="#000000" stroke="none">
<path d="M100 1412 c0 -16 39 -60 73 -81 69 -43 281 -76 565 -88 90 -3 156
-11 161 -17 5 -6 11 -54 13 -106 2 -52 10 -106 17 -118 19 -36 25 -19 11 37
-10 43 -9 63 5 126 17 79 12 106 -22 119 -10 4 -81 11 -158 17 -332 23 -502
53 -647 114 -10 4 -18 3 -18 -3z"/>
<path d="M2120 1410 c-26 -17 -140 -50 -225 -65 -101 -17 -241 -32 -417 -45
-76 -5 -147 -14 -157 -20 -30 -15 -33 -43 -16 -112 16 -59 16 -85 -1 -163 -6
-27 -5 -29 9 -15 20 19 39 137 31 188 -4 26 -2 41 8 49 7 5 83 13 168 17 202
8 440 39 512 66 36 13 69 35 92 60 20 22 36 42 36 45 0 8 -24 5 -40 -5z"/>
<path d="M1070 1273 c-36 -15 -72 -48 -90 -83 -72 -141 79 -291 220 -218 148
76 103 295 -63 304 -29 2 -59 1 -67 -3z m90 -74 c0 -5 4 -8 9 -5 4 3 16 -3 25
-13 13 -15 14 -20 4 -24 -8 -4 -7 -6 5 -6 13 -1 17 -10 17 -36 0 -20 -5 -35
-12 -35 -6 0 -8 -3 -5 -7 9 -9 -23 -44 -34 -37 -5 3 -9 0 -9 -5 0 -6 -16 -11
-35 -11 -36 0 -41 5 -26 29 5 8 19 12 34 9 16 -3 25 -1 24 6 -1 6 4 10 11 9 6
-2 12 1 12 5 0 4 -6 14 -12 21 -7 8 -8 11 -3 8 6 -3 19 1 30 9 19 14 19 15 -7
10 l-28 -5 16 32 c12 26 12 28 0 14 -9 -12 -16 -14 -21 -8 -12 20 -54 12 -71
-13 -10 -16 -21 -23 -32 -19 -13 4 -12 2 3 -10 10 -8 26 -12 35 -10 10 4 9 1
-4 -9 -17 -14 -17 -15 -2 -21 14 -5 15 -11 6 -27 -6 -11 -15 -18 -21 -15 -5 4
-7 11 -3 16 3 5 2 9 -3 8 -20 -3 -27 2 -13 11 13 8 12 10 -2 10 -26 0 -24 60
3 94 17 21 24 24 35 15 12 -10 13 -9 8 5 -5 13 1 16 30 16 20 0 36 -5 36 -11z"/>
<path d="M246 1257 c66 -50 303 -89 505 -85 102 3 124 6 124 18 0 12 -15 16
-65 17 -271 10 -414 25 -555 58 -29 7 -29 7 -9 -8z"/>
<path d="M1965 1259 c-65 -21 -223 -38 -399 -45 -172 -6 -186 -8 -186 -25 0
-21 -7 -21 160 -19 187 1 408 42 464 85 23 17 8 19 -39 4z"/>
<path d="M335 1184 c60 -48 214 -83 404 -91 137 -6 143 -5 139 13 -3 17 -19
20 -183 31 -194 13 -288 26 -344 49 -33 13 -35 13 -16 -2z"/>
<path d="M1905 1188 c-35 -21 -145 -37 -335 -50 -173 -11 -207 -18 -193 -41
12 -19 281 0 386 27 84 21 167 57 167 72 0 6 -2 5 -25 -8z"/>
</g>
</svg>
